<svg width="18" height="18" viewBox="0 0 18 18" fill="none" xmlns="http://www.w3.org/2000/svg">
<path d="M9 17C13.4183 17 17 13.4183 17 9C17 4.58172 13.4183 1 9 1C4.58172 1 1 4.58172 1 9C1 13.4183 4.58172 17 9 17Z" fill="#ED4545" stroke="#ED4545" stroke-width="1.25"/>
<path fill-rule="evenodd" clip-rule="evenodd" d="M12.6802 12.8309C13.0187 12.4883 13.0187 11.9529 12.6802 11.6103L10.2893 9.19047L12.6802 6.77063C13.0187 6.428 13.0187 5.89264 12.6802 5.55C12.3417 5.20737 11.8127 5.20737 11.4741 5.55L9.0832 7.96984L6.69226 5.55C6.35372 5.20737 5.82475 5.20737 5.48621 5.55C5.14766 5.89264 5.14766 6.428 5.48621 6.77063L7.87715 9.19047L5.48621 11.6103C5.14766 11.9529 5.14766 12.4883 5.48621 12.8309C5.82475 13.1736 6.35372 13.1736 6.69226 12.8309L9.0832 10.4111L11.4741 12.8309C11.8127 13.1736 12.3417 13.1736 12.6802 12.8309Z" fill="white"/>
</svg>
