<svg width="116" height="18" viewBox="0 0 116 18" fill="none" xmlns="http://www.w3.org/2000/svg">
<path fill-rule="evenodd" clip-rule="evenodd" d="M47.8659 14.3689H50.2031V6.10352e-05H47.8659V14.3689ZM1.56433 10.6884L0 12.3415C0.888379 13.582 2.24028 14.5657 4.32637 14.5657C5.67875 14.5657 6.81822 14.1532 7.61017 13.3456C8.40212 12.5385 8.88474 11.3179 8.88474 9.6843V0.590896H6.43203V9.60549C6.43203 11.4561 5.56275 12.322 4.2877 12.322C3.14823 12.322 2.35628 11.7314 1.56433 10.6884ZM11.4982 3.97607V10.5899C11.4982 13.0111 12.831 14.5859 15.1291 14.5859C16.713 14.5859 17.6596 13.7394 18.3164 12.7552V14.3694H20.6727V3.97607H18.3164V9.84164C18.3164 11.4558 17.3698 12.4006 16.0179 12.4006C14.6274 12.4006 13.8354 11.4952 13.8354 9.88104V3.97607H11.4982ZM23.3247 3.97617H25.6619V5.5699C26.3182 4.60617 27.2649 3.75968 28.8488 3.75968C31.1473 3.75968 32.4801 5.33444 32.4801 7.73573V14.369H30.1429V8.464C30.1429 6.84936 29.3509 5.92503 27.9599 5.92503C26.608 5.92503 25.6619 6.88876 25.6619 8.50341V14.369H23.3247V3.97617ZM35.8853 14.5262L35.016 16.3179C36.3292 17.125 37.894 17.558 39.5744 17.558C41.4094 17.558 42.8386 17.1056 43.7657 16.1603C44.6154 15.2944 45.0598 13.9954 45.0598 12.2436V3.97626H42.7226V5.53107C41.9307 4.56685 40.8685 3.75977 39.1495 3.75977C36.7737 3.75977 34.5138 5.57047 34.5138 8.64118V8.68058C34.5138 11.7313 36.7546 13.5425 39.1495 13.5425C40.8298 13.5425 41.892 12.7554 42.7422 11.6331V12.4397C42.7422 14.5262 41.6022 15.6291 39.5166 15.6291C38.126 15.6291 36.9861 15.2151 35.8853 14.5262ZM42.7613 8.62172V8.66112C42.7613 10.3531 41.3903 11.5153 39.7678 11.5153C38.1643 11.5153 36.8702 10.3531 36.8702 8.66112V8.62172C36.8702 6.90929 38.1452 5.7675 39.7678 5.7675C41.3903 5.7675 42.7613 6.92875 42.7613 8.62172ZM52.5627 9.17266V9.21207C52.5627 12.4204 54.8417 14.6053 57.797 14.6053C59.6707 14.6053 61.0035 13.8376 61.9692 12.6569L60.5977 11.4168C59.7862 12.2229 58.9752 12.6569 57.8357 12.6569C56.3291 12.6569 55.151 11.7121 54.8999 10.0191H62.3941L62.3996 9.95072L62.3996 9.95058C62.4168 9.74053 62.4327 9.54513 62.4327 9.34974C62.4327 6.35785 60.7906 3.75953 57.5459 3.75953C54.6292 3.75953 52.5627 6.20023 52.5627 9.17266ZM57.5263 5.70839C59.0715 5.70839 59.9604 6.90904 60.1146 8.44439H54.8803C55.0927 6.83023 56.0971 5.70839 57.5263 5.70839ZM64.1517 12.3614L65.5814 10.6286C66.8755 11.7708 68.1887 12.4203 69.85 12.4203C71.3174 12.4203 72.2449 11.712 72.2449 10.6884V10.6485C72.2449 9.66484 71.7041 9.13311 69.1931 8.543C66.3151 7.83419 64.6925 6.96825 64.6925 4.42879V4.38938C64.6925 2.02749 66.6239 0.39387 69.3091 0.39387C71.2792 0.39387 72.8435 1.00392 74.215 2.12576L72.94 3.95641C71.7232 3.03111 70.5064 2.53928 69.2705 2.53928C67.8794 2.53928 67.0684 3.26755 67.0684 4.1729V4.2123C67.0684 5.27528 67.6866 5.74765 70.2939 6.37765C73.1524 7.08598 74.6203 8.12949 74.6203 10.4126V10.452C74.6203 13.0308 72.6311 14.5662 69.7917 14.5662C67.7252 14.5662 65.7742 13.8379 64.1517 12.3614ZM75.7964 9.19217V9.23158C75.7964 12.1841 78.0367 14.6053 81.0694 14.6053C83.0586 14.6053 84.2372 13.7982 85.2416 12.6564L83.8315 11.2393C83.0973 12.007 82.2862 12.5188 81.1854 12.5188C79.3891 12.5188 78.1336 11.0423 78.1336 9.19217V9.15277C78.1336 7.34207 79.3891 5.84612 81.0885 5.84612C82.2476 5.84612 83.0008 6.37736 83.7155 7.14504L85.1834 5.55131C84.2176 4.48785 83.0204 3.75958 81.1081 3.75958C78.0367 3.75958 75.7964 6.24017 75.7964 9.19217ZM98.6108 10.5899V3.97607H100.948V9.88104C100.948 11.4952 101.74 12.4006 103.131 12.4006C104.482 12.4006 105.429 11.4558 105.429 9.84164V3.97607H107.785V14.3694H105.429V12.7552C104.772 13.7394 103.826 14.5859 102.242 14.5859C99.9437 14.5859 98.6108 13.0111 98.6108 10.5899ZM110.92 6.02334V11.4953C110.92 13.7784 112.137 14.5461 113.856 14.5461C114.744 14.5461 115.382 14.3496 115.961 14.0149V12.066C115.498 12.3024 115.034 12.4206 114.513 12.4206C113.721 12.4206 113.257 12.0465 113.257 11.1207V6.02334H116V3.97621H113.257V1.12199H110.92V3.97621H109.626V6.02334H110.92ZM86.1384 9.23158V9.19217C86.1384 6.22023 88.456 3.75958 91.5852 3.75958C94.7143 3.75958 97.0128 6.18082 97.0128 9.15277V9.19217C97.0128 12.1447 94.6947 14.6053 91.5465 14.6053C88.437 14.6053 86.1384 12.1841 86.1384 9.23158ZM94.6757 9.23158V9.19217C94.6757 7.36152 93.3815 5.84612 91.5465 5.84612C89.6729 5.84612 88.4756 7.34206 88.4756 9.15277V9.19217C88.4756 11.0038 89.7693 12.5188 91.5852 12.5188C93.478 12.5188 94.6757 11.0228 94.6757 9.23158ZM93.1991 9.1965C93.1991 7.98807 92.4745 6.91196 91.5756 6.67796C92.8974 6.72904 93.9529 7.83726 93.9529 9.1965C93.9529 10.455 93.0483 11.4976 91.8658 11.6868C92.6177 11.2996 93.1991 10.2862 93.1991 9.1965Z" fill="white"/>
</svg>
