<?xml version="1.0" encoding="UTF-8"?>
<svg width="264px" height="209px" viewBox="0 0 264 209" version="1.1" xmlns="http://www.w3.org/2000/svg" xmlns:xlink="http://www.w3.org/1999/xlink">
    <!-- Generator: Sketch 63.1 (92452) - https://sketch.com -->
    <title>Check</title>
    <desc>Created with Sketch.</desc>
    <g id="EX.1.7---Extension---Onbaording" stroke="none" stroke-width="1" fill="none" fill-rule="evenodd">
        <g id="EX.1.7.6---Onboarding---Step-6" transform="translate(-376.000000, -116.000000)">
            <g id="Check" transform="translate(376.000000, 116.000000)">
                <path d="M250.211538,58.6402878 C251.454179,58.6402878 252.461538,59.6476471 252.461538,60.8902878 L252.461,70.2062878 L261.75,70.2064195 C262.992641,70.2064195 264,71.2137788 264,72.4564195 L264,74.8960985 C264,76.1387392 262.992641,77.1460985 261.75,77.1460985 L252.461,77.1452878 L252.461538,86.4622302 C252.461538,87.7048709 251.454179,88.7122302 250.211538,88.7122302 L247.788462,88.7122302 C246.545821,88.7122302 245.538462,87.7048709 245.538462,86.4622302 L245.538,77.1452878 L236.25,77.1460985 C235.007359,77.1460985 234,76.1387392 234,74.8960985 L234,72.4564195 C234,71.2137788 235.007359,70.2064195 236.25,70.2064195 L245.538,70.2062878 L245.538462,60.8902878 C245.538462,59.6476471 246.545821,58.6402878 247.788462,58.6402878 L250.211538,58.6402878 Z" id="Combined-Shape" fill="#0BAA79"></path>
                <path d="M50.25,52.6258993 C51.4926407,52.6258993 52.5,53.6332586 52.5,54.8758993 L52.5,61.6468993 L59.25,61.647482 C60.4926407,61.647482 61.5,62.6548413 61.5,63.897482 L61.5,63.9082734 C61.5,65.1509141 60.4926407,66.1582734 59.25,66.1582734 L52.5,66.1578993 L52.5,72.9298561 C52.5,74.1724968 51.4926407,75.1798561 50.25,75.1798561 C49.0073593,75.1798561 48,74.1724968 48,72.9298561 L48,66.1578993 L41.25,66.1582734 C40.0073593,66.1582734 39,65.1509141 39,63.9082734 L39,63.897482 C39,62.6548413 40.0073593,61.647482 41.25,61.647482 L48,61.6468993 L48,54.8758993 C48,53.6332586 49.0073593,52.6258993 50.25,52.6258993 Z" id="Combined-Shape-Copy" fill="#0BAA79"></path>
                <path d="M144,0 C145.242641,-2.28269391e-16 146.25,1.00735931 146.25,2.25 L146.25,6.766 L150.75,6.76618705 C151.992641,6.76618705 153,7.77354636 153,9.01618705 L153,9.02697842 C153,10.2696191 151.992641,11.2769784 150.75,11.2769784 L146.25,11.276 L146.25,15.7931655 C146.25,17.0358062 145.242641,18.0431655 144,18.0431655 C142.757359,18.0431655 141.75,17.0358062 141.75,15.7931655 L141.75,11.276 L137.25,11.2769784 C136.007359,11.2769784 135,10.2696191 135,9.02697842 L135,9.01618705 C135,7.77354636 136.007359,6.76618705 137.25,6.76618705 L141.75,6.766 L141.75,2.25 C141.75,1.00735931 142.757359,2.28269391e-16 144,0 Z" id="Combined-Shape-Copy-2" fill="#0BAA79"></path>
                <path d="M112.5,174.417266 C113.742641,174.417266 114.75,175.424625 114.75,176.667266 L114.75,181.183266 L119.25,181.183453 C120.492641,181.183453 121.5,182.190813 121.5,183.433453 L121.5,183.444245 C121.5,184.686885 120.492641,185.694245 119.25,185.694245 L114.75,185.693266 L114.75,190.210432 C114.75,191.453072 113.742641,192.460432 112.5,192.460432 C111.257359,192.460432 110.25,191.453072 110.25,190.210432 L110.25,185.693266 L105.75,185.694245 C104.507359,185.694245 103.5,184.686885 103.5,183.444245 L103.5,183.433453 C103.5,182.190813 104.507359,181.183453 105.75,181.183453 L110.25,181.183266 L110.25,176.667266 C110.25,175.424625 111.257359,174.417266 112.5,174.417266 Z" id="Combined-Shape-Copy-5" fill="#0BAA79"></path>
                <path d="M209.25,187.94964 C210.492641,187.94964 211.5,188.957 211.5,190.19964 L211.5,192.45964 L213.75,192.460432 C214.992641,192.460432 216,193.467791 216,194.710432 L216,194.721223 C216,195.963864 214.992641,196.971223 213.75,196.971223 L211.5,196.97064 L211.5,199.232014 C211.5,200.474655 210.492641,201.482014 209.25,201.482014 C208.007359,201.482014 207,200.474655 207,199.232014 L207,196.97064 L204.75,196.971223 C203.507359,196.971223 202.5,195.963864 202.5,194.721223 L202.5,194.710432 C202.5,193.467791 203.507359,192.460432 204.75,192.460432 L207,192.45964 L207,190.19964 C207,188.957 208.007359,187.94964 209.25,187.94964 Z" id="Combined-Shape-Copy-6" fill="#0BAA79"></path>
                <path d="M176.25,129.309353 C177.492641,129.309353 178.5,130.316712 178.5,131.559353 L178.5,138.330353 L185.25,138.330935 C186.492641,138.330935 187.5,139.338295 187.5,140.580935 L187.5,140.591727 C187.5,141.834367 186.492641,142.841727 185.25,142.841727 L178.5,142.841353 L178.5,149.613309 C178.5,150.85595 177.492641,151.863309 176.25,151.863309 C175.007359,151.863309 174,150.85595 174,149.613309 L174,142.841353 L167.25,142.841727 C166.007359,142.841727 165,141.834367 165,140.591727 L165,140.580935 C165,139.338295 166.007359,138.330935 167.25,138.330935 L174,138.330353 L174,131.559353 C174,130.316712 175.007359,129.309353 176.25,129.309353 Z" id="Combined-Shape-Copy-3" fill="#0BAA79"></path>
                <path d="M16.875,99.2374101 C18.1176407,99.2374101 19.125,100.244769 19.125,101.48741 L19.125,111.64141 L29.25,111.642086 C30.4926407,111.642086 31.5,112.649446 31.5,113.892086 L31.5,116.158273 C31.5,117.400914 30.4926407,118.408273 29.25,118.408273 L19.125,118.40741 L19.125,128.56295 C19.125,129.80559 18.1176407,130.81295 16.875,130.81295 L14.625,130.81295 C13.3823593,130.81295 12.375,129.80559 12.375,128.56295 L12.375,118.40741 L2.25,118.408273 C1.00735931,118.408273 0,117.400914 0,116.158273 L0,113.892086 C0,112.649446 1.00735931,111.642086 2.25,111.642086 L12.375,111.64141 L12.375,101.48741 C12.375,100.244769 13.3823593,99.2374101 14.625,99.2374101 L16.875,99.2374101 Z" id="Combined-Shape-Copy-4" fill="#0BAA79"></path>
                <ellipse id="Oval" fill="#0BAA79" cx="232.5" cy="21.0503597" rx="4.5" ry="4.51079137"></ellipse>
                <ellipse id="Oval-Copy-10" fill="#0BAA79" cx="144" cy="54.1294964" rx="4.5" ry="4.51079137"></ellipse>
                <path d="M115.716682,118.622789 L87.7382072,90.4426443 C83.1206046,85.7917577 75.6200478,85.7777656 70.9852448,90.4113921 C66.3504417,95.0450185 66.336498,102.571603 70.9541007,107.22249 L107.324628,143.855179 C111.954376,148.518298 119.478988,148.518298 124.108735,143.855179 L196.045899,71.3994871 C200.663502,66.7486005 200.649558,59.2220156 196.014755,54.5883891 C191.379952,49.9547626 183.879395,49.9687547 179.261793,54.6196413 L115.716682,118.622789 Z" id="Path-2" fill="#FFFFFF" fill-rule="nonzero"></path>
                <ellipse id="Oval" fill="#0BAA79" cx="112.5" cy="45.1079137" rx="6" ry="6.01438849"></ellipse>
                <ellipse id="Oval-Copy-9" fill="#0BAA79" cx="69" cy="202.985612" rx="6" ry="6.01438849"></ellipse>
                <ellipse id="Oval" fill="#0BAA79" cx="207" cy="139.834532" rx="4.5" ry="4.51079137"></ellipse>
                <ellipse id="Oval" fill="#0BAA79" cx="49.5" cy="148.856115" rx="10.5" ry="10.5251799"></ellipse>
                <ellipse id="Oval" fill="#0BAA79" cx="154.5" cy="175.920863" rx="6" ry="6.01438849"></ellipse>
                <ellipse id="Oval" fill="#0BAA79" cx="47.25" cy="17.2913669" rx="8.25" ry="8.26978417"></ellipse>
                <ellipse id="Oval-Copy-8" fill="#0BAA79" cx="215.25" cy="101.492806" rx="8.25" ry="8.26978417"></ellipse>
            </g>
        </g>
    </g>
</svg>