<svg xmlns="http://www.w3.org/2000/svg" width="418" height="241" viewBox="0 0 418 241">
    <defs>
        <filter id="prefix__a" width="108.2%" height="109%" x="-4.1%" y="-4.5%" filterUnits="objectBoundingBox">
            <feOffset dy="2" in="SourceAlpha" result="shadowOffsetOuter1"/>
            <feGaussianBlur in="shadowOffsetOuter1" result="shadowBlurOuter1" stdDeviation="5.5"/>
            <feColorMatrix in="shadowBlurOuter1" result="shadowMatrixOuter1" values="0 0 0 0 0 0 0 0 0 0 0 0 0 0 0 0 0 0 0.22 0"/>
            <feMerge>
                <feMergeNode in="shadowMatrixOuter1"/>
                <feMergeNode in="SourceGraphic"/>
            </feMerge>
        </filter>
        <filter id="prefix__b" width="124.9%" height="147.7%" x="-12.4%" y="-23.8%" filterUnits="objectBoundingBox">
            <feOffset dy="4" in="SourceAlpha" result="shadowOffsetOuter1"/>
            <feGaussianBlur in="shadowOffsetOuter1" result="shadowBlurOuter1" stdDeviation="10"/>
            <feColorMatrix in="shadowBlurOuter1" result="shadowMatrixOuter1" values="0 0 0 0 0 0 0 0 0 0 0 0 0 0 0 0 0 0 0.22 0"/>
            <feMerge>
                <feMergeNode in="shadowMatrixOuter1"/>
                <feMergeNode in="SourceGraphic"/>
            </feMerge>
        </filter>
    </defs>
    <g fill="none" fill-rule="evenodd" filter="url(#prefix__a)" transform="translate(-101 -100)">
        <g filter="url(#prefix__b)" transform="translate(125 118)">
            <rect width="370" height="193" fill="#FFF" rx="8.132"/>
            <path fill="#222" fill-rule="nonzero" d="M121.561 91.796v20.126h-4.208v-8.477h-8.874v8.477h-4.208V91.796h4.208v8.264h8.874v-8.264h4.208zm6.923 2.684c-1.729 0-2.593-.742-2.593-2.226 0-1.505.864-2.257 2.593-2.257 1.728 0 2.592.752 2.592 2.257 0 1.484-.864 2.226-2.592 2.226zm2.073 17.442h-4.178V96.675h4.178v15.247zm13.692-2.866c1.667 0 2.953.366 3.858 1.098.904.732 1.357 1.779 1.357 3.14 0 1.627-.752 2.898-2.257 3.813-1.504.914-3.486 1.372-5.946 1.372-2.542 0-4.427-.336-5.657-1.007-1.23-.67-1.845-1.585-1.845-2.744 0-.691.234-1.29.701-1.8.468-.507 1.16-.873 2.074-1.097-.691-.285-1.24-.686-1.647-1.205-.406-.518-.61-1.133-.61-1.844 0-.732.214-1.363.64-1.891.428-.529 1.017-.925 1.77-1.19-.773-.447-1.363-1.02-1.77-1.722-.406-.702-.609-1.51-.609-2.425 0-1.606.625-2.871 1.875-3.796 1.25-.925 2.953-1.388 5.108-1.388 1.098 0 2.125.132 3.08.397.264-1.2.778-2.14 1.54-2.821s1.794-.98 3.095-.9l.55 2.989c-.143-.02-.357-.03-.641-.03-.752 0-1.377.132-1.876.396-.498.264-.848.62-1.052 1.067.753.447 1.327 1.017 1.723 1.708.397.691.595 1.484.595 2.378 0 1.586-.625 2.841-1.875 3.766-1.25.925-2.964 1.388-5.139 1.388-.996 0-1.91-.092-2.744-.275-.793.204-1.19.661-1.19 1.373 0 .406.153.716.458.93.305.213.732.32 1.28.32h5.154zm-2.958-10.063c-.813 0-1.479.234-1.997.701-.519.468-.778 1.078-.778 1.83 0 .772.26 1.392.778 1.86.518.468 1.184.701 1.997.701.834 0 1.51-.233 2.028-.701.519-.468.778-1.088.778-1.86 0-.752-.26-1.362-.778-1.83-.518-.467-1.194-.701-2.028-.701zm.305 16.62c1.423 0 2.521-.179 3.294-.534.772-.356 1.158-.808 1.158-1.357 0-.427-.178-.747-.533-.96-.356-.214-.94-.321-1.754-.321h-4.147c-1.687 0-2.531.457-2.531 1.372 0 .57.376 1.012 1.128 1.327.752.315 1.88.472 3.385.472zm19.547-19.243c1.647 0 2.973.478 3.98 1.434 1.006.955 1.51 2.327 1.51 4.116v10.002h-4.179v-8.782c0-2.318-.904-3.476-2.714-3.476-.975 0-1.804.345-2.485 1.037-.681.69-1.021 1.748-1.021 3.17v8.051h-4.178V89.997h4.178v9.27c.467-.976 1.123-1.702 1.966-2.18.844-.478 1.825-.717 2.943-.717zm27.323-4.574c3.151 0 5.59.874 7.319 2.623 1.728 1.748 2.592 4.228 2.592 7.44 0 3.212-.864 5.693-2.592 7.441-1.728 1.748-4.168 2.622-7.319 2.622h-7.776V91.796h7.776zm-.213 16.772c1.91 0 3.35-.574 4.315-1.723.965-1.148 1.448-2.81 1.448-4.986 0-2.175-.483-3.837-1.448-4.986-.966-1.148-2.404-1.722-4.315-1.722h-3.355v13.417h3.355zm28.177-4.33c0 .57-.041 1.118-.122 1.647h-10.795c.427 2.155 1.697 3.232 3.811 3.232.875 0 1.596-.163 2.166-.488.569-.325.965-.793 1.189-1.403l3.415 1.25c-.488 1.22-1.306 2.15-2.455 2.79-1.148.641-2.587.961-4.315.961-2.52 0-4.472-.696-5.854-2.088-1.383-1.393-2.074-3.34-2.074-5.84s.67-4.447 2.013-5.84c1.341-1.392 3.232-2.089 5.671-2.089 2.359 0 4.173.681 5.444 2.043 1.27 1.363 1.906 3.304 1.906 5.825zm-7.38-4.788c-1.016 0-1.825.295-2.424.885-.6.59-.981 1.463-1.144 2.622h7.105c-.162-1.138-.549-2.007-1.158-2.607-.61-.6-1.403-.9-2.379-.9zm29.976-3.08c1.565 0 2.861.478 3.888 1.434 1.027.955 1.54 2.327 1.54 4.116v10.002h-4.178v-9.178c0-1.057-.233-1.835-.701-2.333-.468-.498-1.108-.747-1.921-.747-.976 0-1.779.355-2.41 1.067-.63.712-.945 1.708-.945 2.988v8.203h-4.177v-9.178c0-1.057-.234-1.835-.702-2.333-.467-.498-1.118-.747-1.951-.747-.915 0-1.703.35-2.364 1.052-.66.701-.99 1.743-.99 3.125v8.081h-4.178V96.675h3.75l.122 2.714c.509-.996 1.205-1.748 2.09-2.256.884-.509 1.875-.763 2.972-.763 1.139 0 2.15.265 3.035.793.884.529 1.53 1.291 1.936 2.287.488-.996 1.2-1.758 2.135-2.287.935-.528 1.951-.793 3.05-.793zm23.664 13.021c.427 0 .772-.04 1.037-.122l-.305 2.532c-.57.284-1.23.426-1.982.426-1.952 0-3.121-.762-3.507-2.287-.448.753-1.139 1.322-2.074 1.708-.935.386-2.043.58-3.324.58-1.484 0-2.643-.336-3.476-1.007-.834-.67-1.25-1.636-1.25-2.897 0-2.48 1.982-4.086 5.946-4.818l3.66-.701v-.732c0-.813-.23-1.459-.687-1.937-.457-.477-1.093-.716-1.906-.716-.935 0-1.697.203-2.287.61-.59.406-.996 1.067-1.22 1.982l-3.324-1.403c.326-1.321 1.058-2.358 2.196-3.11 1.139-.753 2.623-1.129 4.452-1.129 2.176 0 3.873.473 5.093 1.418 1.22.946 1.83 2.343 1.83 4.193v6.252c0 .406.091.701.274.884.183.183.468.274.854.274zm-8.844 0c.895 0 1.713-.218 2.455-.655.742-.437 1.113-1.032 1.113-1.784v-1.586l-3.263.732c-.69.163-1.204.381-1.54.656-.335.274-.503.655-.503 1.143s.153.86.458 1.113c.305.254.732.381 1.28.381zm21.5-13.02c1.646 0 2.972.477 3.979 1.433 1.006.955 1.51 2.327 1.51 4.116v10.002h-4.179v-8.782c0-2.318-.904-3.476-2.714-3.476-.976 0-1.804.345-2.485 1.037-.681.69-1.022 1.748-1.022 3.17v8.051h-4.177V96.675h3.75l.122 2.714c.509-.996 1.21-1.748 2.105-2.256.894-.509 1.93-.763 3.11-.763zm24.547-6.374v21.925h-3.72l-.183-2.835c-.447.955-1.113 1.717-1.998 2.287-.884.569-1.895.853-3.034.853-2.033 0-3.629-.696-4.787-2.088-1.16-1.393-1.739-3.33-1.739-5.81 0-2.5.58-4.452 1.739-5.855 1.158-1.402 2.754-2.104 4.787-2.104 1.098 0 2.054.25 2.867.747.813.498 1.443 1.185 1.89 2.059v-9.18h4.178zm-7.715 19.029c1.098 0 1.962-.397 2.592-1.19.63-.793.945-1.92.945-3.385v-.305c0-1.443-.315-2.566-.945-3.37-.63-.802-1.494-1.204-2.592-1.204-1.118 0-1.992.407-2.623 1.22-.63.813-.945 1.982-.945 3.507 0 1.525.315 2.694.945 3.507.63.813 1.505 1.22 2.623 1.22z"/>
            <ellipse cx="55.907" cy="116.816" stroke="#0FB682" stroke-width="6.099" rx="32.527" ry="32.503"/>
            <path fill="#222" fill-rule="nonzero" d="M55.594 103.626c3.122 0 5.531 1.092 7.227 3.275 1.695 2.183 2.543 5.263 2.543 9.24 0 4.147-.854 7.245-2.562 9.295-1.707 2.049-4.147 3.073-7.318 3.073-2.22 0-4.044-.439-5.471-1.317-1.427-.878-2.507-2.22-3.238-4.025l4.647-1.976c.293 1.098.738 1.921 1.336 2.47.597.549 1.518.823 2.762.823 1.83 0 3.166-.707 4.007-2.122.842-1.415 1.263-3.452 1.263-6.111v-.513h-.147c-.317 1.245-1.049 2.172-2.195 2.781-1.147.61-2.452.915-3.916.915-1.512 0-2.866-.317-4.062-.951-1.195-.634-2.14-1.537-2.836-2.708-.695-1.171-1.042-2.537-1.042-4.098 0-2.489.798-4.453 2.396-5.892 1.598-1.44 3.8-2.159 6.606-2.159zm-.074 4.135c-1.317 0-2.33.342-3.037 1.025-.707.683-1.061 1.646-1.061 2.89 0 1.22.354 2.172 1.061 2.855.708.683 1.72 1.024 3.037 1.024 1.245 0 2.239-.353 2.983-1.06.744-.708 1.116-1.647 1.116-2.818 0-1.196-.372-2.147-1.116-2.855-.744-.707-1.738-1.061-2.983-1.061zM121.628 130.196l-4.244 12.197h-1.952l-3.44-9.709-3.245 9.71h-1.951l-4.245-12.198h2.171l3.074 9.929 3.318-9.93h1.951l3.318 9.93 3.074-9.93h2.171zm4.148-2.342c-.44 0-.793-.135-1.062-.403-.268-.268-.402-.622-.402-1.061 0-.44.134-.793.402-1.061.269-.269.622-.403 1.062-.403.439 0 .792.134 1.06.403.27.268.403.622.403 1.06 0 .44-.134.794-.402 1.062-.269.268-.622.403-1.061.403zm.975 14.54H124.8v-12.198h1.951v12.197zm12.003-.854c-.813.731-1.862 1.097-3.147 1.097-.992 0-1.801-.268-2.427-.805-.626-.536-.948-1.358-.964-2.464v-7.49h-2.44v-1.682h2.44v-2.928l1.952-.537v3.465h4.513v1.683h-4.513v7.148c0 .585.166 1.028.5 1.33.333.3.776.45 1.33.45.78 0 1.471-.3 2.073-.902l.683 1.635zm8.685-11.588c1.382 0 2.52.398 3.415 1.195s1.342 1.944 1.342 3.44v7.806h-1.952v-7.123c0-1.269-.272-2.188-.817-2.757-.545-.569-1.272-.854-2.183-.854-.635 0-1.24.147-1.818.44-.577.292-1.049.76-1.415 1.402-.366.643-.549 1.452-.549 2.428v6.464h-1.951v-17.808h1.951v7.44c.407-.7.956-1.22 1.647-1.561.691-.342 1.468-.512 2.33-.512zm19.346 9.172c0 .618.093 1.045.28 1.281.187.236.533.354 1.037.354.342 0 .638-.024.89-.073.253-.05.55-.139.89-.269l-.316 1.879c-.537.228-1.139.341-1.806.341-.992 0-1.728-.268-2.207-.805-.48-.536-.72-1.358-.72-2.464v-14.783h1.952v14.54zm10.758-9.172c1.838 0 3.281.56 4.33 1.683 1.05 1.122 1.574 2.675 1.574 4.66 0 1.984-.525 3.537-1.574 4.66-1.049 1.121-2.492 1.682-4.33 1.682s-3.281-.56-4.33-1.683c-1.05-1.122-1.574-2.675-1.574-4.66 0-1.984.525-3.537 1.574-4.66 1.049-1.121 2.492-1.682 4.33-1.682zm0 1.683c-1.236 0-2.204.415-2.903 1.244-.7.83-1.049 1.968-1.049 3.416 0 1.447.35 2.585 1.049 3.415.7.83 1.667 1.244 2.903 1.244s2.204-.415 2.903-1.244c.7-.83 1.05-1.968 1.05-3.415 0-1.448-.35-2.586-1.05-3.416-.7-.83-1.667-1.244-2.903-1.244zm27.396-1.44l-4.244 12.198h-1.952l-3.44-9.709-3.245 9.71h-1.951l-4.245-12.198h2.171l3.074 9.929 3.318-9.93h1.951l3.318 9.93 3.074-9.93h2.171zm16.638-.243c1.22 0 2.249.28 3.086.841.838.561 1.492 1.362 1.964 2.403l-1.854.879c-.52-1.61-1.602-2.416-3.245-2.416-1.22 0-2.175.411-2.866 1.232-.691.822-1.037 1.956-1.037 3.404 0 1.447.346 2.581 1.037 3.403.691.821 1.647 1.232 2.866 1.232.944 0 1.704-.216 2.281-.647.578-.43.956-1.053 1.135-1.866l1.805.634c-.423 1.139-1.073 2.021-1.952 2.647-.878.626-1.951.94-3.22.94-1.838 0-3.281-.562-4.33-1.684-1.05-1.122-1.574-2.675-1.574-4.66 0-1.984.525-3.537 1.574-4.66 1.049-1.121 2.492-1.682 4.33-1.682zm13.76 0c1.837 0 3.28.56 4.33 1.683 1.048 1.122 1.573 2.675 1.573 4.66 0 1.984-.525 3.537-1.574 4.66-1.049 1.121-2.492 1.682-4.33 1.682s-3.28-.56-4.33-1.683c-1.049-1.122-1.573-2.675-1.573-4.66 0-1.984.524-3.537 1.573-4.66 1.05-1.121 2.492-1.682 4.33-1.682zm0 1.683c-1.237 0-2.204.415-2.904 1.244-.7.83-1.049 1.968-1.049 3.416 0 1.447.35 2.585 1.05 3.415.699.83 1.666 1.244 2.902 1.244 1.236 0 2.204-.415 2.903-1.244.7-.83 1.05-1.968 1.05-3.415 0-1.448-.35-2.586-1.05-3.416-.699-.83-1.667-1.244-2.903-1.244zm23.858-1.683c.813 0 1.574.166 2.281.5.708.333 1.28.85 1.72 1.549.44.7.659 1.561.659 2.586v7.806h-1.952v-7.611c0-1.057-.264-1.842-.793-2.354-.528-.513-1.224-.769-2.086-.769-.65 0-1.248.159-1.793.476-.545.317-.984.78-1.317 1.39-.333.61-.5 1.338-.5 2.184v6.684h-1.952v-7.611c0-1.057-.264-1.842-.793-2.354-.528-.513-1.224-.769-2.085-.769-.586 0-1.155.15-1.708.452-.553.3-1.009.768-1.366 1.402-.358.635-.537 1.423-.537 2.367v6.513h-1.952v-12.197h1.708l.122 1.902c.423-.715.98-1.252 1.671-1.61.691-.357 1.435-.536 2.232-.536.895 0 1.72.203 2.476.61.757.406 1.33 1 1.72 1.78.358-.78.944-1.374 1.757-1.78.813-.407 1.642-.61 2.488-.61zm15.077 0c1.707 0 3.061.565 4.062 1.695 1 1.13 1.5 2.68 1.5 4.648 0 1.967-.5 3.517-1.5 4.647-1 1.13-2.355 1.695-4.062 1.695-.895 0-1.696-.195-2.403-.585-.708-.39-1.257-.91-1.647-1.561v7.025h-1.952v-17.32h1.708l.122 2.122c.358-.716.907-1.289 1.647-1.72.74-.43 1.581-.646 2.525-.646zm-.22 10.978c1.187 0 2.123-.42 2.806-1.257.683-.837 1.024-1.964 1.024-3.378 0-1.415-.341-2.542-1.024-3.38-.683-.837-1.619-1.256-2.806-1.256-1.17 0-2.102.407-2.793 1.22-.691.813-1.037 1.903-1.037 3.27v.292c0 1.366.346 2.456 1.037 3.269.691.813 1.622 1.22 2.793 1.22zm10.563-1.464c.472 0 .854.146 1.147.44.293.292.44.674.44 1.146 0 .471-.147.853-.44 1.146-.293.293-.675.44-1.147.44-.471 0-.853-.147-1.146-.44-.293-.293-.44-.675-.44-1.146 0-.472.147-.854.44-1.147.293-.293.675-.44 1.146-.44zM30.161 31.202c1.674 0 3.132.361 4.374 1.084 1.242.722 2.198 1.762 2.868 3.118.67 1.357 1.004 2.951 1.004 4.784 0 1.832-.335 3.427-1.004 4.783-.67 1.357-1.626 2.397-2.868 3.119-1.242.722-2.7 1.083-4.374 1.083-1.674 0-3.127-.36-4.36-1.083-1.234-.722-2.185-1.762-2.855-3.119-.67-1.356-1.004-2.95-1.004-4.783 0-1.833.335-3.427 1.004-4.784.67-1.356 1.621-2.396 2.854-3.118 1.234-.723 2.687-1.084 4.361-1.084zm0 2.458c-1.638 0-2.925.573-3.858 1.718-.934 1.145-1.401 2.748-1.401 4.81 0 2.061.467 3.665 1.4 4.81.934 1.145 2.22 1.718 3.86 1.718 1.655 0 2.95-.573 3.884-1.718.934-1.145 1.4-2.749 1.4-4.81 0-2.062-.466-3.665-1.4-4.81-.934-1.145-2.229-1.718-3.885-1.718zm19.16 1.77c1.816 0 3.243.604 4.282 1.811 1.04 1.207 1.56 2.885 1.56 5.035 0 2.15-.52 3.836-1.56 5.06-1.04 1.225-2.466 1.837-4.281 1.837-.952 0-1.802-.21-2.55-.634-.75-.423-1.326-1.004-1.732-1.744v7.664h-2.827V35.695h2.484l.132 2.458c.388-.828.973-1.489 1.757-1.982.785-.494 1.696-.74 2.736-.74zm-.633 11.444c1.145 0 2.039-.4 2.682-1.202.643-.802.965-1.925.965-3.37s-.322-2.572-.965-3.383c-.643-.81-1.537-1.216-2.682-1.216-1.075 0-1.934.362-2.577 1.084-.643.722-1 1.727-1.07 3.013v1.004c.07 1.269.427 2.264 1.07 2.987.643.722 1.502 1.083 2.577 1.083zm17.257-11.443c1.815 0 3.242.603 4.282 1.81s1.56 2.885 1.56 5.035c0 2.15-.52 3.836-1.56 5.06-1.04 1.225-2.467 1.837-4.282 1.837-.951 0-1.801-.21-2.55-.634-.749-.423-1.326-1.004-1.731-1.744v7.664h-2.828V35.695h2.484l.133 2.458c.387-.828.973-1.489 1.757-1.982.784-.494 1.696-.74 2.735-.74zm-.634 11.443c1.145 0 2.04-.4 2.683-1.202.643-.802.964-1.925.964-3.37s-.321-2.572-.964-3.383c-.643-.81-1.538-1.216-2.683-1.216-1.075 0-1.934.362-2.577 1.084-.643.722-1 1.727-1.07 3.013v1.004c.07 1.269.427 2.264 1.07 2.987.643.722 1.502 1.083 2.577 1.083zm15.963-11.443c2.061 0 3.674.607 4.836 1.823 1.163 1.216 1.745 2.899 1.745 5.048 0 2.15-.582 3.832-1.745 5.048-1.162 1.216-2.775 1.823-4.836 1.823-2.061 0-3.674-.607-4.836-1.823-1.163-1.216-1.745-2.898-1.745-5.048s.582-3.832 1.745-5.048c1.162-1.216 2.775-1.823 4.836-1.823zm0 2.22c-1.198 0-2.119.4-2.762 1.202-.643.802-.964 1.951-.964 3.45 0 1.497.321 2.646.964 3.448s1.564 1.202 2.762 1.202 2.123-.405 2.775-1.215c.652-.81.978-1.956.978-3.436s-.326-2.625-.978-3.436c-.652-.81-1.577-1.215-2.775-1.215zm17.02-2.22c.617 0 1.101.088 1.454.264l-.45 2.59c-.405-.23-.96-.344-1.665-.344-.564 0-1.097.15-1.599.45-.502.3-.916.748-1.242 1.347-.326.6-.489 1.322-.489 2.168v7.003h-2.828V35.695h2.405l.238 2.378c.74-1.761 2.132-2.642 4.176-2.642zm12.686 12.606c-.423.352-.939.63-1.546.833-.608.202-1.265.303-1.97.303-1.215 0-2.188-.303-2.92-.911-.73-.608-1.105-1.555-1.123-2.841v-7.506h-2.51v-2.22h2.51v-3.092l2.828-.793v3.885h4.625v2.22h-4.625v7.03c0 .634.172 1.106.515 1.414.344.308.815.462 1.414.462.81 0 1.524-.282 2.141-.845l.66 2.061zm14.615-12.342v13.214h-2.511l-.106-2.14c-.898 1.603-2.466 2.404-4.704 2.404-1.427 0-2.577-.392-3.449-1.176-.872-.784-1.308-1.986-1.308-3.607v-8.695h2.828v7.955c0 1.163.229 1.986.687 2.471.458.485 1.136.727 2.035.727 1.075 0 1.96-.34 2.656-1.018.696-.678 1.044-1.678 1.044-3v-7.135h2.828zm11.496-.264c1.462 0 2.656.422 3.581 1.268.925.846 1.388 2.062 1.388 3.647v8.563h-2.828v-7.664c0-2.326-.943-3.489-2.828-3.489-.987 0-1.832.34-2.537 1.018-.705.678-1.057 1.722-1.057 3.132v7.003h-2.828V35.695h2.51l.133 2.193c.44-.828 1.048-1.444 1.823-1.85.775-.405 1.656-.607 2.643-.607zm10.677-1.956c-.599 0-1.066-.154-1.4-.463-.335-.308-.503-.744-.503-1.308 0-.564.168-.995.503-1.295.334-.3.801-.45 1.4-.45.6 0 1.062.15 1.388.45.326.3.489.731.489 1.295s-.163 1-.49 1.308c-.325.309-.788.463-1.387.463zm1.401 15.434h-2.828V35.695h2.828v13.214zm12.976-.872c-.422.352-.938.63-1.546.833-.608.202-1.264.303-1.969.303-1.215 0-2.189-.303-2.92-.911-.731-.608-1.106-1.555-1.123-2.841v-7.506h-2.51v-2.22h2.51v-3.092l2.828-.793v3.885h4.625v2.22h-4.625v7.03c0 .634.171 1.106.515 1.414.344.308.815.462 1.414.462.81 0 1.524-.282 2.14-.845l.661 2.061zm8.748 2.431c-.581 1.516-1.242 2.582-1.982 3.198-.74.617-1.709.925-2.907.925-.687 0-1.282-.083-1.784-.25-.502-.168-.947-.437-1.335-.807l.82-2.167c.528.634 1.25.951 2.167.951.528 0 .973-.136 1.334-.41.362-.272.683-.77.965-1.492l.582-1.428-1.375-3.277-4.123-10.016h3.172l2.907 8.298.766 2.485.899-2.722 2.749-8.061h2.933l-5.788 14.773zm23.257-19.266c1.604 0 2.974.29 4.11.872 1.136.582 2.092 1.471 2.868 2.67l-2.141 1.929c-.494-1.057-1.11-1.824-1.85-2.3-.74-.475-1.727-.713-2.96-.713-1.216 0-2.159.242-2.828.727-.67.484-1.004 1.105-1.004 1.863 0 .705.326 1.264.978 1.678.651.414 1.814.771 3.488 1.07 1.568.282 2.815.64 3.74 1.07.925.433 1.599.97 2.022 1.613.422.643.634 1.44.634 2.392 0 1.022-.29 1.92-.872 2.695-.582.776-1.397 1.37-2.445 1.784-1.048.414-2.26.621-3.634.621-3.541 0-6.043-1.18-7.506-3.54l1.983-1.983c.563 1.057 1.29 1.832 2.18 2.326.89.493 1.995.74 3.317.74 1.25 0 2.233-.216 2.946-.648.714-.432 1.07-1.044 1.07-1.837 0-.634-.32-1.145-.964-1.533-.643-.387-1.766-.73-3.37-1.03-1.603-.3-2.88-.67-3.832-1.11-.951-.44-1.643-.987-2.074-1.639-.432-.652-.648-1.445-.648-2.378 0-.987.273-1.886.82-2.696.546-.81 1.334-1.454 2.365-1.93 1.03-.475 2.233-.713 3.607-.713zm16.439 4.229c2.89 0 4.801 1.233 5.735 3.7l-2.643 1.057c-.458-1.674-1.489-2.51-3.092-2.51-1.18 0-2.097.404-2.749 1.215-.652.81-.977 1.955-.977 3.435s.325 2.617.977 3.41c.652.793 1.568 1.19 2.749 1.19.899 0 1.62-.221 2.167-.662.546-.44.907-1.074 1.084-1.903l2.59.873c-.388 1.233-1.075 2.198-2.062 2.894-.986.696-2.229 1.043-3.726 1.043-2.08 0-3.705-.607-4.876-1.823-1.172-1.216-1.758-2.898-1.758-5.048s.582-3.832 1.745-5.048c1.162-1.216 2.775-1.823 4.836-1.823zm14.959 0c2.061 0 3.673.607 4.836 1.823 1.163 1.216 1.744 2.899 1.744 5.048 0 2.15-.581 3.832-1.744 5.048-1.163 1.216-2.775 1.823-4.836 1.823-2.062 0-3.674-.607-4.837-1.823-1.163-1.216-1.744-2.898-1.744-5.048s.581-3.832 1.744-5.048c1.163-1.216 2.775-1.823 4.837-1.823zm0 2.22c-1.199 0-2.12.4-2.762 1.202-.643.802-.965 1.951-.965 3.45 0 1.497.322 2.646.965 3.448s1.563 1.202 2.762 1.202c1.198 0 2.123-.405 2.775-1.215.651-.81.977-1.956.977-3.436s-.326-2.625-.977-3.436c-.652-.81-1.577-1.215-2.775-1.215zm17.02-2.22c.616 0 1.1.088 1.453.264l-.45 2.59c-.404-.23-.96-.344-1.664-.344-.564 0-1.097.15-1.6.45-.501.3-.915.748-1.241 1.347-.326.6-.49 1.322-.49 2.168v7.003h-2.827V35.695h2.405l.238 2.378c.74-1.761 2.132-2.642 4.176-2.642zm15.936 6.475c0 .51-.035.995-.106 1.453h-9.673c.159 1.163.573 2.048 1.243 2.656.67.608 1.532.912 2.59.912.863 0 1.58-.154 2.153-.462.573-.309.965-.754 1.177-1.335l2.352.978c-.987 2.044-2.881 3.065-5.682 3.065-2.08 0-3.705-.607-4.877-1.823-1.171-1.216-1.757-2.898-1.757-5.048 0-2.167.564-3.854 1.691-5.061 1.128-1.207 2.714-1.81 4.758-1.81 1.938 0 3.444.59 4.519 1.77 1.075 1.18 1.612 2.749 1.612 4.705zm-6.131-4.229c-1.022 0-1.846.3-2.472.899-.625.599-1.017 1.47-1.176 2.616h7.136c-.14-1.11-.515-1.973-1.123-2.59-.608-.617-1.396-.925-2.365-.925z"/>
            <g transform="translate(272 24)">
                <circle cx="15.247" cy="15.247" r="15.247" fill="#8299A4"/>
                <path fill="#FBFBFB" d="M20.468 7.325c1.263.817 1.895 1.963 1.895 3.436 0 1.527-.517 2.703-1.552 3.53-1.034.826-2.396 1.32-4.087 1.482l-.09 2.721h-3.043l-.06-4.069c1.95-.215 3.342-.579 4.178-1.091.835-.512 1.253-1.235 1.253-2.17 0-.79-.314-1.41-.94-1.858-.627-.45-1.547-.674-2.76-.674-1.193 0-2.158.296-2.894.89-.736.592-1.163 1.418-1.283 2.478l-2.953-1.266C8.45 9.332 9.24 8.21 10.504 7.365 11.767 6.521 13.422 6.1 15.47 6.1c2.069 0 3.734.409 4.997 1.226zm-3.744 13.77c.398.35.597.813.597 1.387 0 .593-.2 1.06-.597 1.402-.398.34-.935.512-1.611.512-.696 0-1.243-.171-1.64-.512-.399-.342-.598-.809-.598-1.402 0-.574.204-1.037.612-1.387.408-.35.95-.526 1.626-.526.676 0 1.213.175 1.611.526z"/>
            </g>
        </g>
    </g>
</svg>
